<svg xmlns="http://www.w3.org/2000/svg" enable-background="new 0 0 24 24" viewBox="0 0 24 24" id="safari"><path d="M4.77,7.448c-0.106,0-0.75-0.44-0.886-0.522c-0.954,1.514-1.462,3.28-1.462,5.076c0,0.63,0.068,1.249,0.189,1.863l0.905-0.208c0.077-0.01,0.213,0.043,0.213,0.135c0,0.097-0.029,0.175-0.135,0.203L2.67,14.198c0.562,2.371,2.023,4.447,4.045,5.787c0.121-0.16,0.522-0.963,0.711-0.963c0.092,0,0.174,0.083,0.174,0.174c0,0.106-0.508,0.842-0.59,0.978c1.5,0.915,3.227,1.408,4.984,1.408c0.659,0,1.312-0.068,1.955-0.203l-0.213-0.909c-0.01-0.068,0.043-0.203,0.135-0.203c0.112,0,0.189,0.014,0.203,0.135l0.213,0.895c2.328-0.576,4.38-2.023,5.705-4.031c-0.16-0.097-0.787-0.415-0.788-0.59c0-0.092,0.083-0.174,0.183-0.174c0.106,0,0.668,0.402,0.803,0.47c0.909-1.485,1.394-3.212,1.394-4.969c0-0.629-0.068-1.258-0.189-1.872l-0.765,0.174c-0.068,0.01-0.203-0.043-0.203-0.135c0-0.106,0.014-0.184,0.135-0.213l0.75-0.16c-0.552-2.333-1.97-4.38-3.954-5.72c-0.096,0.16-0.454,0.857-0.643,0.857c-0.092,0-0.16-0.083-0.16-0.175c0-0.106,0.43-0.736,0.522-0.871c-1.529-0.954-3.281-1.462-5.076-1.462c-0.605,0-1.205,0.068-1.795,0.175l0.203,0.886c0.01,0.077-0.038,0.213-0.135,0.213s-0.175-0.029-0.203-0.135L9.87,2.667C7.514,3.2,5.438,4.637,4.073,6.63c0.16,0.111,0.871,0.469,0.871,0.658C4.945,7.38,4.862,7.448,4.77,7.448z M10.94,11.221c0.164-0.281,6.023-5.67,6.657-6.264l-4.687,7.774c-0.15,0.257-6.029,5.68-6.644,6.257L10.94,11.221z"></path><path d="M12,24c6.629,0,12-5.371,12-12S18.629,0,12,0S0,5.371,0,12S5.371,24,12,24z M12,1.287c5.918,0,10.713,4.795,10.713,10.713c0,5.918-4.795,10.713-10.713,10.713S1.287,17.918,1.287,12C1.287,6.082,6.082,1.287,12,1.287z"></path><path d="M11.865,11.182c-0.47,0-0.789,0.416-0.789,0.857c0,0.455,0.416,0.779,0.852,0.779c0.47,0,0.779-0.416,0.779-0.857C12.707,11.492,12.295,11.182,11.865,11.182z"></path></svg>